<svg width="192.6555" height="192.3879" viewBox="0 0 192.6555 192.3879" xmlns="http://www.w3.org/2000/svg" xmlns:xlink="http://www.w3.org/1999/xlink"><g id="Logo" fill="none" fill-rule="nonzero" stroke="none" stroke-width="1" stroke-linecap="butt" stroke-linejoin="miter" stroke-miterlimit="10" stroke-dasharray="" stroke-dashoffset="0" font-family="none" font-weight="none" font-size="none" text-anchor="none" style="mix-blend-mode: normal"><path d="M100.9247,0.01c2.47,0.26 5,0.47 7.42,0.78c11.4738,1.3437 22.5767,4.9065 32.69,10.49c0.07,0 0.11,0.11 0.36,0.38h-1.41c-4.6195,-0.2123 -9.2483,0.093 -13.8,0.91c-13.45,2.94 -21.87,11.15 -25.49,24.35c-1.2694,4.7042 -1.9017,9.5576 -1.88,14.43c0,0.36 0,0.72 0.06,1.2c4.4,-0.61 8.7,-0.93 12.76,1.85l-4.44,2.44c1.7527,0.7569 3.4502,1.6357 5.08,2.63c1.4204,1.1502 2.7571,2.4 4,3.74l-0.27,0.34c-1.62,-0.42 -3.22,-0.87 -4.85,-1.24c-0.85,-0.19 -2,-0.75 -2.44,0.31c-0.21,0.47 0.53,1.42 1,2.07c0.5619,0.7474 1.1662,1.4619 1.81,2.14l-6.06,-1.5l-0.19,0.28c0.49,0.57 1,1.18 1.49,1.71c3.41,3.3 6.85,6.57 10.26,9.86c3.4227,3.3405 5.6387,7.7233 6.3,12.46c0.869,5.2001 3.1094,10.0743 6.49,14.12c5.16,6.32 10.19,12.74 15.3,19.1c1.72,2.14 3.48,4.2467 5.28,6.32c2.6007,2.8739 3.9406,6.6704 3.72,10.54c-0.0243,1.1225 0.0865,2.2439 0.33,3.34c0.535,2.6021 -0.0573,5.309 -1.63,7.45c-0.9856,1.391 -2.0718,2.7079 -3.25,3.94c-1.06,1.16 -1.73,1.06 -3,0.16c-3.12,-2.2 -6.23,-4.42 -9.48,-6.42c-1.6294,-0.811 -3.3257,-1.4801 -5.07,-2c-0.3309,2.1743 -0.0896,4.3973 0.7,6.45c0.67,2 1.5,3.86 2.27,5.78c-4.62,1.51 -11.33,-1 -13.29,-5.37c-0.85,-1.92 -0.72,-4.29 -1,-6.46c0.0015,-0.6703 -0.0554,-1.3395 -0.17,-2c-0.1651,-0.616 -0.5139,-1.1671 -1,-1.58c-3.5033,-2.5066 -7.9267,-3.3577 -12.11,-2.33c-2.38,0.58 -4.79,-0.06 -7.11,-0.78c-0.59,-0.19 -1.18,-0.33 -2,-0.56c0,1.26 0,2.36 0,3.46c0.34,7 1.6,13.69 4.81,20c4.87,9.53 12.84,14.87 23.16,17c4.325,0.8769 8.7422,1.2128 13.15,1c0.54,0 1.09,0 1.63,0c0.1,0 0.2,0.09 0.53,0.24c-28.0214,15.095 -61.7451,15.1326 -89.8,0.1v-0.33c0.29,0 0.58,-0.06 0.87,-0.06c5.89,0.11 11.76,0 17.43,-1.8c11.4,-3.61 19,-11.06 22.22,-22.63c3.67,-13.14 3.39,-26.12 -2,-38.81c-3.5289,-7.9281 -8.5657,-15.0944 -14.83,-21.1c-9,-9 -18.16,-17.74 -27.22,-26.63c-4.2,-4.11 -7.21,-9.12 -10.3,-14.06c-0.3239,-0.6135 -0.453,-1.3112 -0.37,-2c0.52,-5.74 2.63,-10.7 7.25,-14.38c0.44,-0.35 0.93,-0.65 1.63,-1.13c-0.72,7.51 0.79,14.22 5.15,20.21c-0.29,-1.62 -0.56,-3.23 -0.86,-4.84c-0.9721,-5.0335 -0.9381,-10.2097 0.1,-15.23c0.53,-2.5 1.45,-3.25 4,-3.36c5.28,-0.22 10.39,0.36 15.08,3.05c2.2921,1.2902 4.3073,3.0199 5.93,5.09c0.3332,0.3171 0.5159,0.7608 0.5026,1.2206c-0.0134,0.4598 -0.2215,0.8922 -0.5726,1.1894c-1.49,1.63 -3,3.23 -4.39,4.94c-1.694,1.9074 -2.3971,4.4979 -1.9,7c0.0979,0.2858 0.2253,0.5606 0.38,0.82c1.83,-4.35 5.12,-7.33 8.2,-10.47c3.08,-3.14 5,-6.43 4.92,-10.84l0.36,-0.19c0.9032,0.6691 1.7524,1.408 2.54,2.21c2.3042,2.9307 3.6952,6.4745 4,10.19c0.27,2.1 0.28,4.22 0.42,6.49c1.15,-0.55 2.33,-1 3.42,-1.69c0.3785,-0.3144 0.6012,-0.7781 0.61,-1.27c0,-7.27 -0.77,-14.43 -3.74,-21.2c-4.74,-10.76 -13.09,-16.89 -24.5,-19.1c-4.6641,-0.8891 -9.4249,-1.1614 -14.16,-0.81h-0.87c0.57,-0.38 0.87,-0.6 1.19,-0.77c9.3872,-5.1326 19.6493,-8.4697 30.26,-9.84c2.6,-0.35 5.22,-0.52 7.82,-0.79c0.36,0 0.72,-0.15 1.07,-0.22zM117.9247,98.12c-1.43,-9.23 -8.17,-13.46 -15.17,-18c0.8,3.27 1.34,6.26 2.31,9.1c0.544,1.2152 1.4955,2.202 2.69,2.79c3.39,1.85 7.06,3.17 10.21,6.11z" fill="#e2b43a"></path><path d="M151.1547,58.16h24.44c-0.25,-5.79 -0.49,-11.54 -0.73,-17.37c11.2057,15.2914 17.4059,33.6754 17.75,52.63c0.59,21.29 -5.21,40.68 -17.88,57.93c0.24,-2.47 0.52,-4.93 0.73,-7.4c1.28,-15.75 -3.06,-29.75 -13.68,-41.48c-5.75,-6.33 -12.09,-12.13 -18.22,-18.11c-4.53,-4.41 -9.14,-8.75 -12.75,-14c-3.9821,-5.5884 -6.0834,-12.2985 -6,-19.16c0.0723,-2.6094 0.438,-5.2024 1.09,-7.73c1.22,-4.81 4.37,-7.72 9.42,-8c2.4828,-0.183 4.9789,-0.0282 7.42,0.46c4.46,1 6.81,4.25 7.37,8.58c0.56,4.33 0.7,8.99 1.04,13.65z" fill="#ffffff"></path><path d="M41.5147,129.34h-24.7c0.1867,7.3667 0.3733,14.6367 0.56,21.81c-7.7322,-10.7836 -13.0403,-23.1122 -15.56,-36.14c-2.5597,-13.1789 -2.41,-26.7409 0.44,-39.86c2.52,-11.65 12.11,-32.46 16.72,-35.95c-0.28,2.24 -0.56,4.41 -0.82,6.59c-2,17.58 2.58,33 15,45.84c6.7,6.89 13.74,13.44 20.57,20.2c5.48,5.4 10.53,11.13 13.12,18.57c2.0931,5.9242 2.3061,12.3502 0.61,18.4c-1.1155,4.8353 -5.5115,8.1943 -10.47,8c-2.3251,0.0497 -4.6494,-0.1278 -6.94,-0.53c-4.2274,-0.8682 -7.3877,-4.4022 -7.78,-8.7c-0.37,-3.72 -0.54,-7.45 -0.7,-11.19c-0.13,-2.31 -0.05,-4.6 -0.05,-7.04z" fill="#ffffff"></path><path d="M117.9647,98.12c-3.16,-2.94 -6.82,-4.26 -10.21,-6.08c-1.1778,-0.5929 -2.1142,-1.5751 -2.65,-2.78c-1,-2.84 -1.51,-5.83 -2.31,-9.1c7.02,4.5 13.74,8.73 15.17,17.96z" fill="#ffffff"></path></g></svg>